#tb 0: 12/377
0,          0,          0,        1,   270000, 0xf90015d8
0,          1,          1,        1,   270000, 0xf90015d8
0,          2,          2,        1,   270000, 0xf90015d8
0,          3,          3,        1,   270000, 0xf90015d8
0,          4,          4,        1,   270000, 0xf90015d8
0,          5,          5,        1,   270000, 0xf90015d8
0,          6,          6,        1,   270000, 0xf90015d8
0,          7,          7,        1,   270000, 0xf90015d8
0,          8,          8,        1,   270000, 0xf90015d8
0,          9,          9,        1,   270000, 0xf90015d8
0,         10,         10,        1,   270000, 0xf90015d8
0,         11,         11,        1,   270000, 0xf90015d8
0,         12,         12,        1,   270000, 0xf90015d8
0,         13,         13,        1,   270000, 0xf90015d8
0,         14,         14,        1,   270000, 0xf90015d8
0,         15,         15,        1,   270000, 0xf90015d8
0,         16,         16,        1,   270000, 0xf90015d8
0,         17,         17,        1,   270000, 0xf90015d8
0,         18,         18,        1,   270000, 0xf90015d8
0,         19,         19,        1,   270000, 0xf90015d8
0,         20,         20,        1,   270000, 0xf90015d8
0,         21,         21,        1,   270000, 0xf90015d8
0,         22,         22,        1,   270000, 0xf90015d8
0,         23,         23,        1,   270000, 0xf90015d8
0,         24,         24,        1,   270000, 0xf90015d8
0,         25,         25,        1,   270000, 0xf90015d8
0,         26,         26,        1,   270000, 0xf90015d8
0,         27,         27,        1,   270000, 0xf90015d8
0,         28,         28,        1,   270000, 0xf90015d8
0,         29,         29,        1,   270000, 0xf90015d8
0,         30,         30,        1,   270000, 0xf90015d8
0,         31,         31,        1,   270000, 0xf90015d8
0,         32,         32,        1,   270000, 0xf90015d8
0,         33,         33,        1,   270000, 0xf90015d8
0,         34,         34,        1,   270000, 0xf90015d8
0,         35,         35,        1,   270000, 0xf90015d8
0,         36,         36,        1,   270000, 0xf90015d8
0,         37,         37,        1,   270000, 0xf90015d8
0,         38,         38,        1,   270000, 0xf90015d8
0,         39,         39,        1,   270000, 0x1f9c15d8
0,         40,         40,        1,   270000, 0x436f15d8
0,         41,         41,        1,   270000, 0xe90115d8
0,         42,         42,        1,   270000, 0xe90115d8
0,         43,         43,        1,   270000, 0x8ea215d8
0,         44,         44,        1,   270000, 0x424015d8
0,         45,         45,        1,   270000, 0x0ce315d8
0,         46,         46,        1,   270000, 0x14bc15d8
0,         47,         47,        1,   270000, 0x2a9215d8
0,         48,         48,        1,   270000, 0x233f15d8
0,         49,         49,        1,   270000, 0x764b15d8
0,         50,         50,        1,   270000, 0xf76115d8
0,         51,         51,        1,   270000, 0xbbe015d8
0,         52,         52,        1,   270000, 0x95af15d8
0,         53,         53,        1,   270000, 0x324815d8
0,         54,         54,        1,   270000, 0x311915d8
0,         55,         55,        1,   270000, 0x090ef191
0,         56,         56,        1,   270000, 0xd88974dc
0,         57,         57,        1,   270000, 0xfa7f58df
0,         58,         58,        1,   270000, 0x78f849c3
0,         59,         59,        1,   270000, 0xae174892
0,         60,         60,        1,   270000, 0x9d4e2332
0,         61,         61,        1,   270000, 0x874b09b4
0,         62,         62,        1,   270000, 0x4069fed6
0,         63,         63,        1,   270000, 0x4069fed6
0,         64,         64,        1,   270000, 0x4069fed6
0,         65,         65,        1,   270000, 0x4069fed6
0,         66,         66,        1,   270000, 0x4069fed6
0,         67,         67,        1,   270000, 0x4069fed6
0,         68,         68,        1,   270000, 0x4069fed6
0,         69,         69,        1,   270000, 0x4069fed6
0,         70,         70,        1,   270000, 0x4069fed6
0,         71,         71,        1,   270000, 0x4069fed6
0,         72,         72,        1,   270000, 0x4069fed6
0,         73,         73,        1,   270000, 0x773db046
0,         74,         74,        1,   270000, 0x773db046
0,         75,         75,        1,   270000, 0x773db046
0,         76,         76,        1,   270000, 0x773db046
0,         77,         77,        1,   270000, 0x773db046
0,         78,         78,        1,   270000, 0x773db046
0,         79,         79,        1,   270000, 0x773db046
0,         80,         80,        1,   270000, 0x773db046
0,         81,         81,        1,   270000, 0x773db046
0,         82,         82,        1,   270000, 0x773db046
0,         83,         83,        1,   270000, 0x773db046
0,         84,         84,        1,   270000, 0x773db046
0,         85,         85,        1,   270000, 0x773db046
0,         86,         86,        1,   270000, 0x773db046
0,         87,         87,        1,   270000, 0x773db046
0,         88,         88,        1,   270000, 0x773db046
0,         89,         89,        1,   270000, 0x773db046
0,         90,         90,        1,   270000, 0x17b9aec9
0,         91,         91,        1,   270000, 0x622fad4c
0,         92,         92,        1,   270000, 0xdaea3aef
0,         93,         93,        1,   270000, 0x61bb10e3
0,         94,         94,        1,   270000, 0xfc37ee0c
0,         95,         95,        1,   270000, 0x50dbd01e
0,         96,         96,        1,   270000, 0xcd66c27c
0,         97,         97,        1,   270000, 0xd13f1e4f
0,         98,         98,        1,   270000, 0xa4a2dbf5
0,         99,         99,        1,   270000, 0xf302c9ab
0,        100,        100,        1,   270000, 0x4479f7fe
0,        101,        101,        1,   270000, 0x1afe92c8
0,        102,        102,        1,   270000, 0x3007f4c3
0,        103,        103,        1,   270000, 0x5834c096
0,        104,        104,        1,   270000, 0x40109126
0,        105,        105,        1,   270000, 0x0a7b8882
0,        106,        106,        1,   270000, 0x15b8635d
0,        107,        107,        1,   270000, 0xeaa5598e
0,        108,        108,        1,   270000, 0x0b7b5489
0,        109,        109,        1,   270000, 0x0b7b5489
0,        110,        110,        1,   270000, 0x0b7b5489
0,        111,        111,        1,   270000, 0x0b7b5489
0,        112,        112,        1,   270000, 0x8f0e6eaa
0,        113,        113,        1,   270000, 0xc46fc0f2
0,        114,        114,        1,   270000, 0xadd7e605
0,        115,        115,        1,   270000, 0x9d23a056
0,        116,        116,        1,   270000, 0x365afa63
0,        117,        117,        1,   270000, 0x6ac3bda2
0,        118,        118,        1,   270000, 0x14f5daf2
0,        119,        119,        1,   270000, 0x4b3afb6a
0,        120,        120,        1,   270000, 0x1a3302e3
0,        121,        121,        1,   270000, 0x1a3302e3
0,        122,        122,        1,   270000, 0x1a3302e3
0,        123,        123,        1,   270000, 0x1a3302e3
0,        124,        124,        1,   270000, 0xc15526e2
0,        125,        125,        1,   270000, 0x3dd73006
0,        126,        126,        1,   270000, 0x60abb5bc
0,        127,        127,        1,   270000, 0xb960c27c
0,        128,        128,        1,   270000, 0x8fa4c01c
0,        129,        129,        1,   270000, 0x8fa4c01c
0,        130,        130,        1,   270000, 0x8fa4c01c
0,        131,        131,        1,   270000, 0xb20dcc38
0,        132,        132,        1,   270000, 0x03c6ad3c
0,        133,        133,        1,   270000, 0xe550b194
0,        134,        134,        1,   270000, 0xe550b194
0,        135,        135,        1,   270000, 0xe550b194
0,        136,        136,        1,   270000, 0xe550b194
0,        137,        137,        1,   270000, 0xe550b194
0,        138,        138,        1,   270000, 0xe550b194
0,        139,        139,        1,   270000, 0xe550b194
0,        140,        140,        1,   270000, 0xe550b194
0,        141,        141,        1,   270000, 0xe550b194
0,        142,        142,        1,   270000, 0xe550b194
0,        143,        143,        1,   270000, 0xe550b194
0,        144,        144,        1,   270000, 0xe550b194
0,        145,        145,        1,   270000, 0xe550b194
0,        146,        146,        1,   270000, 0xe550b194
0,        147,        147,        1,   270000, 0x4550a014
0,        148,        148,        1,   270000, 0xaf639da8
0,        149,        149,        1,   270000, 0xe4229da8
0,        150,        150,        1,   270000, 0x315d9da8
0,        151,        151,        1,   270000, 0x7e899da8
0,        152,        152,        1,   270000, 0x99b9a8a0
0,        153,        153,        1,   270000, 0x4588ac2a
0,        154,        154,        1,   270000, 0x1e79ae6e
0,        155,        155,        1,   270000, 0xa003cb14
0,        156,        156,        1,   270000, 0x03ef1bb8
0,        157,        157,        1,   270000, 0x3b3f30fc
0,        158,        158,        1,   270000, 0x4dad3525
0,        159,        159,        1,   270000, 0x5b600c12
0,        160,        160,        1,   270000, 0x75a1fab3
0,        161,        161,        1,   270000, 0xc9f7d9ad
0,        162,        162,        1,   270000, 0x9eaec58d
0,        163,        163,        1,   270000, 0xb91bc3e8
0,        164,        164,        1,   270000, 0x77bdbbfb
0,        165,        165,        1,   270000, 0x77bdbbfb
0,        166,        166,        1,   270000, 0x77bdbbfb
0,        167,        167,        1,   270000, 0x77bdbbfb
0,        168,        168,        1,   270000, 0x77bdbbfb
0,        169,        169,        1,   270000, 0x77bdbbfb
0,        170,        170,        1,   270000, 0x3d54eac2
0,        171,        171,        1,   270000, 0x3d54eac2
0,        172,        172,        1,   270000, 0x3d54eac2
0,        173,        173,        1,   270000, 0x3d54eac2
0,        174,        174,        1,   270000, 0x3d54eac2
0,        175,        175,        1,   270000, 0x3d54eac2
0,        176,        176,        1,   270000, 0x3d54eac2
0,        177,        177,        1,   270000, 0x3d54eac2
0,        178,        178,        1,   270000, 0x3d54eac2
0,        179,        179,        1,   270000, 0x3d54eac2
0,        180,        180,        1,   270000, 0x3d54eac2
0,        181,        181,        1,   270000, 0x3d54eac2
0,        182,        182,        1,   270000, 0x3d54eac2
0,        183,        183,        1,   270000, 0x3d54eac2
0,        184,        184,        1,   270000, 0x3d54eac2
0,        185,        185,        1,   270000, 0x3d54eac2
0,        186,        186,        1,   270000, 0x3d54eac2
0,        187,        187,        1,   270000, 0x3d54eac2
0,        188,        188,        1,   270000, 0x3d54eac2
0,        189,        189,        1,   270000, 0x5f3609ba
0,        190,        190,        1,   270000, 0x80921b0c
0,        191,        191,        1,   270000, 0x80921b0c
0,        192,        192,        1,   270000, 0x80921b0c
0,        193,        193,        1,   270000, 0x80921b0c
0,        194,        194,        1,   270000, 0x80921b0c
0,        195,        195,        1,   270000, 0x80921b0c
0,        196,        196,        1,   270000, 0x80921b0c
0,        197,        197,        1,   270000, 0x80921b0c
0,        198,        198,        1,   270000, 0x80921b0c
0,        199,        199,        1,   270000, 0x80921b0c
0,        200,        200,        1,   270000, 0x80921b0c
0,        201,        201,        1,   270000, 0x80921b0c
0,        202,        202,        1,   270000, 0x80921b0c
0,        203,        203,        1,   270000, 0x80921b0c
0,        204,        204,        1,   270000, 0x80921b0c
0,        205,        205,        1,   270000, 0x80921b0c
0,        206,        206,        1,   270000, 0xf0e626a8
0,        207,        207,        1,   270000, 0xf0e626a8
